<?xml version="1.0" encoding="iso-8859-1"?>
<!-- Generator: Adobe Illustrator 19.0.0, SVG Export Plug-In . SVG Version: 6.00 Build 0)  -->
<svg version="1.1" id="Capa_1" xmlns="http://www.w3.org/2000/svg" xmlns:xlink="http://www.w3.org/1999/xlink" x="0px" y="0px"
	 viewBox="0 0 512 512" style="enable-background:new 0 0 512 512;" xml:space="preserve">
<polyline style="fill:#C6C6C6;" points="213.802,387.283 105.026,387.283 7.502,494.184 7.502,499.81 504.498,499.81 
	504.498,494.184 406.974,387.283 298.198,387.283 "/>
<path style="fill:#FD4A4B;" d="M271.941,429.221c27.977,2.58,48.762,12.213,48.762,23.702c0,13.465-28.549,24.381-63.766,24.381
	s-63.766-10.916-63.766-24.381c0-11.489,20.785-21.122,48.762-23.702"/>
<path style="fill:#FFFFFF;" d="M263.115,443.363c11.52,1.062,20.079,5.029,20.079,9.759c0,5.544-11.756,10.039-26.256,10.039
	c-14.501,0-26.256-4.495-26.256-10.039c0-4.731,8.558-8.697,20.079-9.759"/>
<polygon style="fill:#7C7C7C;" points="502.623,499.81 7.502,497.935 31.883,471.678 480.117,469.803 "/>
<path style="fill:#FD9727;" d="M406.974,162.228c0,82.863-150.037,285.07-150.037,285.07s-150.037-202.206-150.037-285.07
	S174.075,12.191,256.938,12.191S406.974,79.364,406.974,162.228z"/>
<path style="fill:#FEBA62;" d="M255.062,449.173c0,0-150.037-202.206-150.037-285.07S172.199,14.066,255.062,14.066"/>
<circle style="fill:#7C7C7C;" cx="256.933" cy="160.349" r="125.651"/>
<circle style="fill:#C6C6C6;" cx="256.933" cy="160.349" r="99.394"/>
<polygon style="fill:#BE3838;" points="194.695,124.919 256.762,89.085 318.828,124.919 318.828,196.586 256.762,232.421 
	194.695,196.586 "/>
<polygon style="fill:#FD6E6F;" points="255.062,160.352 195.048,194.11 195.048,124.718 255.062,90.96 "/>
<g>
	<rect x="60.015" y="462.303" style="fill:#FFFFFF;" width="15.004" height="15.004"/>
	<rect x="112.527" y="409.79" style="fill:#FFFFFF;" width="15.004" height="15.004"/>
	<rect x="435.106" y="462.303" style="fill:#FFFFFF;" width="15.004" height="15.004"/>
	<rect x="382.593" y="409.79" style="fill:#FFFFFF;" width="15.004" height="15.004"/>
</g>
<path d="M410.285,379.781h-97.35c44.182-67.154,101.542-164.546,101.542-217.553c0-86.867-70.671-157.538-157.538-157.538
	S99.4,75.36,99.4,162.228c0,53.007,57.36,150.399,101.542,217.553h-99.227L0,491.275v16.036h512v-16.036L410.285,379.781z
	 M256.938,19.693c78.594,0,142.535,63.941,142.535,142.535c0,70.154-114.688,233.658-142.535,272.318
	c-27.847-38.656-142.535-202.146-142.535-272.318C114.403,83.633,178.344,19.693,256.938,19.693z M250.913,451.767l6.024,8.119
	l6.024-8.119c0.905-1.219,4.792-6.48,10.763-14.826c26.284,2.875,39.477,11.678,39.477,15.982c0,1.983-3.689,6.347-13.854,10.233
	c-11.21,4.286-26.271,6.647-42.409,6.647c-16.139,0-31.201-2.361-42.409-6.647c-10.164-3.887-13.854-8.249-13.854-10.233
	c0-4.305,13.192-13.107,39.477-15.982C246.121,445.288,250.008,450.547,250.913,451.767z M19.368,492.308l88.969-97.524h102.586
	c7.154,10.636,13.757,20.211,19.46,28.353c-27.498,4.516-44.712,15.734-44.712,29.786c0,20.931,35.852,31.883,71.267,31.883
	c35.415,0,71.267-10.952,71.267-31.883c0-14.052-17.214-25.269-44.712-29.786c5.702-8.142,12.306-17.717,19.46-28.353h100.711
	l88.969,97.524H19.368z"/>
<path d="M256.938,293.51c-73.423,0-133.158-59.735-133.158-133.158S183.515,27.195,256.938,27.195s133.158,59.734,133.158,133.158
	S330.361,293.51,256.938,293.51z M256.938,42.198c-65.15,0-118.154,53.004-118.154,118.154s53.004,118.154,118.154,118.154
	c65.151,0,118.154-53.004,118.154-118.154S322.089,42.198,256.938,42.198z"/>
<rect x="247.56" y="327.27" style="fill:#FFFFFF;" width="15.004" height="15.004"/>
<rect x="225.055" y="349.775" width="15.004" height="15.004"/>
<rect x="270.066" y="349.775" width="15.004" height="15.004"/>
<polygon style="fill:#FD4A4B;" points="198.799,195.986 256.938,162.228 313.201,195.986 255.062,231.62 "/>
<rect x="247.56" y="57.204" style="fill:#FFFFFF;" width="15.004" height="15.004"/>
<path d="M259.171,78.013l-69.569,40.165v80.331l69.569,40.165l69.568-40.165v-80.331L259.171,78.013z M313.736,181.394
	l-46.886-28.416V99.77l46.886,27.07V181.394z M251.846,99.566v53.591l-47.24,26.701V126.84L251.846,99.566z M210.949,193.507
	l48.549-27.441l46.554,28.215l-46.881,27.067L210.949,193.507z"/>
<g>
	
		<rect x="180.472" y="85.763" transform="matrix(-0.7071 -0.7071 0.7071 -0.7071 254.9435 292.1313)" style="fill:#FFFFFF;" width="15.004" height="15.004"/>
	<rect x="151.907" y="154.728" style="fill:#FFFFFF;" width="15.004" height="15.004"/>
	
		<rect x="180.477" y="223.682" transform="matrix(-0.7071 -0.7071 0.7071 -0.7071 157.4289 527.5767)" style="fill:#FFFFFF;" width="15.004" height="15.004"/>
	<rect x="249.431" y="252.252" style="fill:#FFFFFF;" width="15.004" height="15.004"/>
	
		<rect x="318.383" y="223.684" transform="matrix(-0.7071 -0.7071 0.7071 -0.7071 392.8473 625.0942)" style="fill:#FFFFFF;" width="15.004" height="15.004"/>
	<rect x="346.955" y="154.728" style="fill:#FFFFFF;" width="15.004" height="15.004"/>
	
		<rect x="318.395" y="85.758" transform="matrix(-0.7071 -0.7071 0.7071 -0.7071 490.396 389.6488)" style="fill:#FFFFFF;" width="15.004" height="15.004"/>
</g>
<g>
</g>
<g>
</g>
<g>
</g>
<g>
</g>
<g>
</g>
<g>
</g>
<g>
</g>
<g>
</g>
<g>
</g>
<g>
</g>
<g>
</g>
<g>
</g>
<g>
</g>
<g>
</g>
<g>
</g>
</svg>
